<?xml version="1.0" encoding="UTF-8"?>
<svg width="512" height="512" viewBox="0 0 512 512" xmlns="http://www.w3.org/2000/svg" role="img" aria-label="Donate QR code">
  <defs>
    <style>
      .bg { fill: #fff; }
      .fg { fill: #111827; }
      .frame { fill: none; stroke: #111827; stroke-width: 32; }
      .dot { fill: #111827; }
    </style>
  </defs>
  <rect class="bg" width="512" height="512" rx="32"/>
  <rect class="frame" x="40" y="40" width="144" height="144" rx="24"/>
  <rect class="frame" x="328" y="40" width="144" height="144" rx="24"/>
  <rect class="frame" x="40" y="328" width="144" height="144" rx="24"/>
  <rect class="dot" x="112" y="112" width="48" height="48" rx="8"/>
  <rect class="dot" x="400" y="112" width="48" height="48" rx="8"/>
  <rect class="dot" x="112" y="400" width="48" height="48" rx="8"/>
  <rect class="dot" x="192" y="192" width="56" height="56"/>
  <rect class="dot" x="296" y="192" width="56" height="56"/>
  <rect class="dot" x="192" y="296" width="56" height="56"/>
  <rect class="dot" x="296" y="296" width="56" height="56"/>
  <rect class="dot" x="240" y="240" width="32" height="32"/>
  <rect class="dot" x="328" y="328" width="32" height="32"/>
  <rect class="dot" x="136" y="328" width="32" height="32"/>
  <text x="256" y="476" text-anchor="middle" font-family="Inter, Arial, sans-serif" font-size="28" fill="#374151">Scan to donate</text>
</svg>
